<svg xmlns="http://www.w3.org/2000/svg" viewBox="0 0 512 512" width="512" height="512" aria-label="Mincho version">
  <defs>
    <path id="starShapeA" d="M256 40
      Q280 148 328 184
      Q364 220 472 256
      Q364 292 328 328
      Q280 364 256 472
      Q232 364 184 328
      Q148 292 40 256
      Q148 220 184 184
      Q232 148 256 40 Z"/>
  </defs>
  <use href="#starShapeA" fill="#E0BD52" stroke="#5C3A88" stroke-width="18" stroke-linejoin="round"/>
  <g transform="translate(256 270) scale(0.165,-0.165) translate(-502.0,-376.0)">
    <path d="M167 835C171 769 130 710 91 688C59 671 38 640 50 603C67 564 117 555 152 579C190 605 219 665 205 750H790C779 705 761 646 745 606L753 600C808 630 881 684 922 724C943 726 954 728 962 737L851 842L786 778H199C195 796 188 815 180 835ZM312 704C301 614 252 402 219 304C268 288 316 291 341 307L357 367H633C628 314 623 267 617 225H40L49 197H612C598 114 579 59 559 43C548 34 538 32 519 32C496 32 416 38 366 42L365 28C413 19 455 4 474 -13C491 -30 496 -58 496 -90C559 -90 601 -78 636 -51C680 -17 709 66 729 197H937C951 197 961 202 964 213C924 252 854 309 854 309L792 225H734C739 263 743 304 747 349C769 351 781 357 789 366L685 454L624 395H364L394 523H783C797 523 808 528 811 539C769 578 699 634 699 634L638 552H401L423 659C450 662 460 672 462 686Z" fill="#5C3A88"/>
  </g>
</svg>
